<svg width="600" height="338" viewBox="0 0 600 338" xmlns="http://www.w3.org/2000/svg">
  <defs>
    <linearGradient id="bg3" x1="0%" y1="0%" x2="100%" y2="100%">
      <stop offset="0%" style="stop-color:#10b981;stop-opacity:0.1" />
      <stop offset="100%" style="stop-color:#f59e0b;stop-opacity:0.1" />
    </linearGradient>
  </defs>
  
  <!-- Background -->
  <rect width="600" height="338" fill="url(#bg3)" stroke="#e5e7eb" stroke-width="2" rx="8"/>
  
  <!-- Internet/External -->
  <rect x="50" y="60" width="80" height="40" fill="#ef4444" stroke="#dc2626" stroke-width="2" rx="4"/>
  <text x="90" y="85" text-anchor="middle" fill="white" font-family="Arial" font-size="12" font-weight="bold">Internet</text>
  
  <!-- Firewall -->
  <rect x="180" y="60" width="100" height="40" fill="#1e40af" stroke="#1d4ed8" stroke-width="3" rx="6"/>
  <text x="230" y="78" text-anchor="middle" fill="white" font-family="Arial" font-size="11" font-weight="bold">PCI Firewall</text>
  <text x="230" y="92" text-anchor="middle" fill="white" font-family="Arial" font-size="9">CIS Hardened</text>
  
  <!-- DMZ -->
  <rect x="330" y="60" width="80" height="40" fill="#f59e0b" stroke="#d97706" stroke-width="2" rx="4"/>
  <text x="370" y="85" text-anchor="middle" fill="white" font-family="Arial" font-size="12" font-weight="bold">DMZ</text>
  
  <!-- Cardholder Data Environment -->
  <rect x="180" y="150" width="240" height="120" fill="#10b981" stroke="#059669" stroke-width="3" rx="8"/>
  <text x="300" y="170" text-anchor="middle" fill="white" font-family="Arial" font-size="14" font-weight="bold">Cardholder Data Environment</text>
  
  <!-- Application Server -->
  <rect x="200" y="190" width="80" height="30" fill="#6b7280" stroke="#4b5563" stroke-width="2" rx="4"/>
  <text x="240" y="210" text-anchor="middle" fill="white" font-family="Arial" font-size="10">App Server</text>
  
  <!-- Database Server -->
  <rect x="320" y="190" width="80" height="30" fill="#6b7280" stroke="#4b5563" stroke-width="2" rx="4"/>
  <text x="360" y="210" text-anchor="middle" fill="white" font-family="Arial" font-size="10">DB Server</text>
  
  <!-- Encryption -->
  <circle cx="240" cy="240" r="15" fill="#8b5cf6" stroke="#7c3aed" stroke-width="2"/>
  <text x="240" y="246" text-anchor="middle" fill="white" font-family="Arial" font-size="8" font-weight="bold">TLS</text>
  
  <circle cx="360" cy="240" r="15" fill="#8b5cf6" stroke="#7c3aed" stroke-width="2"/>
  <text x="360" y="246" text-anchor="middle" fill="white" font-family="Arial" font-size="8" font-weight="bold">AES</text>
  
  <!-- Logging Server -->
  <rect x="460" y="100" width="80" height="80" fill="#374151" stroke="#1f2937" stroke-width="2" rx="4"/>
  <text x="500" y="125" text-anchor="middle" fill="white" font-family="Arial" font-size="11" font-weight="bold">SIEM</text>
  <text x="500" y="140" text-anchor="middle" fill="white" font-family="Arial" font-size="9">Centralized</text>
  <text x="500" y="153" text-anchor="middle" fill="white" font-family="Arial" font-size="9">Logging</text>
  <text x="500" y="166" text-anchor="middle" fill="white" font-family="Arial" font-size="9">90-day</text>
  
  <!-- MFA -->
  <rect x="460" y="200" width="80" height="30" fill="#ec4899" stroke="#db2777" stroke-width="2" rx="4"/>
  <text x="500" y="220" text-anchor="middle" fill="white" font-family="Arial" font-size="10" font-weight="bold">MFA/2FA</text>
  
  <!-- Network Connections -->
  <line x1="130" y1="80" x2="180" y2="80" stroke="#374151" stroke-width="2"/>
  <line x1="280" y1="80" x2="330" y2="80" stroke="#374151" stroke-width="2"/>
  <line x1="230" y1="100" x2="230" y2="150" stroke="#374151" stroke-width="2"/>
  <line x1="370" y1="100" x2="370" y2="150" stroke="#374151" stroke-width="2"/>
  
  <!-- Logging connections -->
  <line x1="420" y1="180" x2="460" y2="140" stroke="#06b6d4" stroke-width="2" stroke-dasharray="3,3"/>
  <line x1="280" y1="205" x2="460" y2="140" stroke="#06b6d4" stroke-width="2" stroke-dasharray="3,3"/>
  <line x1="400" y1="205" x2="460" y2="140" stroke="#06b6d4" stroke-width="2" stroke-dasharray="3,3"/>
  
  <!-- Network Segmentation -->
  <rect x="160" y="40" width="140" height="80" fill="none" stroke="#ef4444" stroke-width="2" stroke-dasharray="5,5" rx="8"/>
  <text x="230" y="35" text-anchor="middle" fill="#ef4444" font-family="Arial" font-size="10" font-weight="bold">Perimeter Zone</text>
  
  <rect x="160" y="130" width="280" height="150" fill="none" stroke="#10b981" stroke-width="2" stroke-dasharray="5,5" rx="8"/>
  <text x="300" y="295" text-anchor="middle" fill="#10b981" font-family="Arial" font-size="10" font-weight="bold">CDE - Restricted Access</text>
  
  <!-- Vulnerability Scanner -->
  <rect x="50" y="150" width="80" height="30" fill="#8b5cf6" stroke="#7c3aed" stroke-width="2" rx="4"/>
  <text x="90" y="170" text-anchor="middle" fill="white" font-family="Arial" font-size="10">Vuln Scanner</text>
  
  <!-- Scanner connection -->
  <line x1="130" y1="165" x2="180" y2="180" stroke="#8b5cf6" stroke-width="2" stroke-dasharray="3,3"/>
  
  <!-- Compliance Icons -->
  <circle cx="520" cy="50" r="20" fill="#10b981" stroke="#059669" stroke-width="2"/>
  <text x="520" y="47" text-anchor="middle" fill="white" font-family="Arial" font-size="9" font-weight="bold">PCI</text>
  <text x="520" y="57" text-anchor="middle" fill="white" font-family="Arial" font-size="9" font-weight="bold">DSS</text>
  
  <!-- File Integrity Monitoring -->
  <rect x="50" y="200" width="80" height="30" fill="#f59e0b" stroke="#d97706" stroke-width="2" rx="4"/>
  <text x="90" y="220" text-anchor="middle" fill="white" font-family="Arial" font-size="10">FIM</text>
  
  <!-- FIM connection -->
  <line x1="130" y1="215" x2="200" y2="220" stroke="#f59e0b" stroke-width="2" stroke-dasharray="3,3"/>
  
  <!-- Compliance Score -->
  <rect x="460" y="260" width="100" height="50" fill="#f8fafc" stroke="#e5e7eb" stroke-width="2" rx="4"/>
  <text x="510" y="280" text-anchor="middle" fill="#10b981" font-family="Arial" font-size="14" font-weight="bold">98%</text>
  <text x="510" y="295" text-anchor="middle" fill="#374151" font-family="Arial" font-size="10">Compliance</text>
  <text x="510" y="305" text-anchor="middle" fill="#374151" font-family="Arial" font-size="10">Score</text>
  
  <!-- Title -->
  <text x="300" y="25" text-anchor="middle" fill="#10b981" font-family="Arial" font-size="16" font-weight="bold">PCI DSS Compliant Architecture</text>
</svg>