<svg width="600" height="338" viewBox="0 0 600 338" xmlns="http://www.w3.org/2000/svg">
  <defs>
    <linearGradient id="bg2" x1="0%" y1="0%" x2="100%" y2="100%">
      <stop offset="0%" style="stop-color:#8b5cf6;stop-opacity:0.1" />
      <stop offset="100%" style="stop-color:#06b6d4;stop-opacity:0.1" />
    </linearGradient>
  </defs>
  
  <!-- Background -->
  <rect width="600" height="338" fill="url(#bg2)" stroke="#e5e7eb" stroke-width="2" rx="8"/>
  
  <!-- Data Sources -->
  <rect x="50" y="60" width="80" height="30" fill="#374151" stroke="#1f2937" stroke-width="2" rx="4"/>
  <text x="90" y="80" text-anchor="middle" fill="white" font-family="Arial" font-size="10" font-weight="bold">Firewalls</text>
  
  <rect x="50" y="100" width="80" height="30" fill="#374151" stroke="#1f2937" stroke-width="2" rx="4"/>
  <text x="90" y="120" text-anchor="middle" fill="white" font-family="Arial" font-size="10" font-weight="bold">Endpoints</text>
  
  <rect x="50" y="140" width="80" height="30" fill="#374151" stroke="#1f2937" stroke-width="2" rx="4"/>
  <text x="90" y="160" text-anchor="middle" fill="white" font-family="Arial" font-size="10" font-weight="bold">AD/DNS</text>
  
  <rect x="50" y="180" width="80" height="30" fill="#374151" stroke="#1f2937" stroke-width="2" rx="4"/>
  <text x="90" y="200" text-anchor="middle" fill="white" font-family="Arial" font-size="10" font-weight="bold">Cloud Apps</text>
  
  <!-- Data Connectors -->
  <line x1="130" y1="75" x2="180" y2="75" stroke="#06b6d4" stroke-width="3"/>
  <line x1="130" y1="115" x2="180" y2="115" stroke="#06b6d4" stroke-width="3"/>
  <line x1="130" y1="155" x2="180" y2="155" stroke="#06b6d4" stroke-width="3"/>
  <line x1="130" y1="195" x2="180" y2="195" stroke="#06b6d4" stroke-width="3"/>
  
  <!-- SIEM Core -->
  <rect x="180" y="100" width="120" height="80" fill="#8b5cf6" stroke="#7c3aed" stroke-width="3" rx="8"/>
  <text x="240" y="125" text-anchor="middle" fill="white" font-family="Arial" font-size="14" font-weight="bold">Microsoft</text>
  <text x="240" y="145" text-anchor="middle" fill="white" font-family="Arial" font-size="14" font-weight="bold">Sentinel</text>
  <text x="240" y="165" text-anchor="middle" fill="white" font-family="Arial" font-size="10">KQL Analytics</text>
  
  <!-- Detection Rules -->
  <rect x="350" y="60" width="100" height="40" fill="#ef4444" stroke="#dc2626" stroke-width="2" rx="4"/>
  <text x="400" y="75" text-anchor="middle" fill="white" font-family="Arial" font-size="11" font-weight="bold">Detection</text>
  <text x="400" y="90" text-anchor="middle" fill="white" font-family="Arial" font-size="11" font-weight="bold">Rules</text>
  
  <!-- SOAR Playbooks -->
  <rect x="350" y="120" width="100" height="40" fill="#10b981" stroke="#059669" stroke-width="2" rx="4"/>
  <text x="400" y="135" text-anchor="middle" fill="white" font-family="Arial" font-size="11" font-weight="bold">SOAR</text>
  <text x="400" y="150" text-anchor="middle" fill="white" font-family="Arial" font-size="11" font-weight="bold">Playbooks</text>
  
  <!-- Threat Intelligence -->
  <rect x="350" y="180" width="100" height="40" fill="#f59e0b" stroke="#d97706" stroke-width="2" rx="4"/>
  <text x="400" y="195" text-anchor="middle" fill="white" font-family="Arial" font-size="11" font-weight="bold">Threat Intel</text>
  <text x="400" y="210" text-anchor="middle" fill="white" font-family="Arial" font-size="11" font-weight="bold">MISP/OTX</text>
  
  <!-- Connections from SIEM -->
  <line x1="300" y1="120" x2="350" y2="80" stroke="#374151" stroke-width="2"/>
  <line x1="300" y1="140" x2="350" y2="140" stroke="#374151" stroke-width="2"/>
  <line x1="300" y1="160" x2="350" y2="200" stroke="#374151" stroke-width="2"/>
  
  <!-- Output Systems -->
  <rect x="480" y="80" width="80" height="30" fill="#6366f1" stroke="#4f46e5" stroke-width="2" rx="4"/>
  <text x="520" y="100" text-anchor="middle" fill="white" font-family="Arial" font-size="10" font-weight="bold">ServiceNow</text>
  
  <rect x="480" y="120" width="80" height="30" fill="#ec4899" stroke="#db2777" stroke-width="2" rx="4"/>
  <text x="520" y="140" text-anchor="middle" fill="white" font-family="Arial" font-size="10" font-weight="bold">Email/Slack</text>
  
  <rect x="480" y="160" width="80" height="30" fill="#06b6d4" stroke="#0891b2" stroke-width="2" rx="4"/>
  <text x="520" y="180" text-anchor="middle" fill="white" font-family="Arial" font-size="10" font-weight="bold">Dashboard</text>
  
  <!-- Connections to outputs -->
  <line x1="450" y1="100" x2="480" y2="95" stroke="#374151" stroke-width="2"/>
  <line x1="450" y1="140" x2="480" y2="135" stroke="#374151" stroke-width="2"/>
  <line x1="450" y1="180" x2="480" y2="175" stroke="#374151" stroke-width="2"/>
  
  <!-- Automated Response -->
  <circle cx="400" cy="260" r="25" fill="#10b981" stroke="#059669" stroke-width="3"/>
  <text x="400" y="255" text-anchor="middle" fill="white" font-family="Arial" font-size="9" font-weight="bold">AUTO</text>
  <text x="400" y="268" text-anchor="middle" fill="white" font-family="Arial" font-size="9" font-weight="bold">RESPONSE</text>
  
  <!-- Response arrow -->
  <line x1="400" y1="220" x2="400" y2="235" stroke="#10b981" stroke-width="3" marker-end="url(#arrowhead)"/>
  
  <!-- Arrow marker -->
  <defs>
    <marker id="arrowhead" markerWidth="10" markerHeight="7" refX="9" refY="3.5" orient="auto">
      <polygon points="0 0, 10 3.5, 0 7" fill="#10b981"/>
    </marker>
  </defs>
  
  <!-- KQL Queries indicator -->
  <rect x="200" y="40" width="80" height="20" fill="#f3f4f6" stroke="#d1d5db" stroke-width="1" rx="4"/>
  <text x="240" y="54" text-anchor="middle" fill="#374151" font-family="Arial" font-size="9">KQL Queries</text>
  
  <!-- Performance Metrics -->
  <rect x="50" y="260" width="120" height="60" fill="#f8fafc" stroke="#e5e7eb" stroke-width="2" rx="4"/>
  <text x="110" y="280" text-anchor="middle" fill="#1e40af" font-family="Arial" font-size="12" font-weight="bold">Performance</text>
  <text x="110" y="295" text-anchor="middle" fill="#374151" font-family="Arial" font-size="9">MTTD: -65%</text>
  <text x="110" y="308" text-anchor="middle" fill="#374151" font-family="Arial" font-size="9">Automation: +80%</text>
  
  <!-- Title -->
  <text x="300" y="30" text-anchor="middle" fill="#8b5cf6" font-family="Arial" font-size="16" font-weight="bold">SIEM Detection & SOAR Automation</text>
</svg>